<svg xmlns="http://www.w3.org/2000/svg" viewBox="0 0 460 108" role="img" aria-labelledby="title desc">
  <title id="title">ご予約はこちら</title>
  <desc id="desc">超獣飢餓の予約ページへ移動するためのボタン</desc>
  <defs>
    <linearGradient id="frame" x1="0" y1="0" x2="1" y2="1">
      <stop offset="0" stop-color="#d6c7b3"/>
      <stop offset=".55" stop-color="#8d7f72"/>
      <stop offset="1" stop-color="#50453d"/>
    </linearGradient>
    <linearGradient id="red" x1="0" y1="0" x2="1" y2="1">
      <stop offset="0" stop-color="#8e1714"/>
      <stop offset=".55" stop-color="#5f0e0b"/>
      <stop offset="1" stop-color="#261311"/>
    </linearGradient>
    <filter id="shadow" x="-10%" y="-40%" width="120%" height="180%">
      <feDropShadow dx="0" dy="8" stdDeviation="8" flood-color="#000" flood-opacity=".45"/>
    </filter>
  </defs>
  <g filter="url(#shadow)">
    <path d="M22 16h364l52 38-52 38H22L8 54 22 16Z" fill="#171010"/>
    <path d="M35 30h341l33 24-33 24H35l-7-24 7-24Z" fill="#231716" opacity=".72"/>
    <path d="M26 21h356l45 33-45 33H26L15 54l11-33Z" fill="url(#red)" stroke="url(#frame)" stroke-width="3"/>
    <path d="M26 21h356l45 33-45 33H26L15 54l11-33Z" fill="none" stroke="#f2ece2" stroke-opacity=".26"/>
  </g>
  <circle cx="58" cy="54" r="28" fill="#15110f" stroke="url(#frame)" stroke-width="3"/>
  <path d="M43 53c9-15 21-17 32-3-12-5-22-3-32 3Zm4 14c11-10 22-11 34-1-12-2-22 1-34 1Z" fill="#cabba7"/>
  <text x="112" y="48" fill="#fff7d5" font-family="'Yu Mincho','Hiragino Mincho ProN',serif" font-size="25" font-weight="700" letter-spacing="4">ご予約はこちら</text>
  <text x="113" y="70" fill="#cbb8a1" font-family="Arial,sans-serif" font-size="11" font-weight="700" letter-spacing="3">RESERVATION</text>
  <path d="M385 45l10 9-10 9" fill="none" stroke="#fff7d5" stroke-width="3" stroke-linecap="round" stroke-linejoin="round"/>
</svg>
