<?xml version="1.0" encoding="UTF-8"?>
<svg id="_デザイン" data-name="デザイン" xmlns="http://www.w3.org/2000/svg" version="1.1" viewBox="0 0 440.6 110.8">
  <!-- Generator: Adobe Illustrator 30.3.0, SVG Export Plug-In . SVG Version: 2.1.3 Build 182)  -->
  <path d="M57.6,73.8l-5.1-1.3c0,0-.2,0-.2-.2,0,0,0-.2,0-.2,1.6-3.4,3.1-6.8,4-9.6h-11.2c0,0-3.8.2-3.8.2,0,0-.1,0-.2,0l-.2-.2c0,0,0-.1,0-.2v-4.4c0,0,0-.1,0-.2l.2-.2c0,0,.1,0,.2,0s3.9,0,3.9,0h13c0,0,2.7-.3,2.8-.3,0,0,.1,0,.2,0l1.8,1.9c.2.2.5.5.5.9s0,.5-.2.8c-1.7,4.6-2.9,8.1-5.2,12.8,0,.1-.1.2-.3.2s0,0,0,0ZM39.4,57.9c-.4,0-.6-.2-.8-.4l-3.4-3.3c0,0,0-.2,0-.2,0,0,0-.2.1-.2,5.3-3.1,10.3-8.7,14.1-15.8,0,0,0-.1.2-.1h.4c0-.1,0-.1,0-.1s0,0,0,0l5.1,1.4c0,0,.2.1.2.2v.4c.1,0,.1.1,0,.2-.2.3-.4.6-.5.9,3.9,5.3,8.3,8.8,14.5,11.9,0,0,.1.1.2.2,0,0,0,.2,0,.2l-3.5,3.8c-.5.5-.9.8-1.2.8-.2,0-.5,0-.8-.3-1.8-1.3-3.5-2.7-5.2-4.2v1.8c0,0,0,.2,0,.2l-.2.2c0,0-.1,0-.2,0s-3.9,0-3.9,0h-5s-3.8.2-3.8.2c0,0-.1,0-.2,0l-.2-.2c0,0,0-.1,0-.2v-1.5c-1.5,1.4-3,2.7-4.8,3.9-.4.2-.7.4-1,.4h0ZM49.5,50.4h5s1.4,0,1.4,0c-1.5-1.6-2.7-3.2-3.8-4.8-1.3,1.8-2.6,3.4-3.8,4.9h1.2Z"/>
  <path d="M71.1,73.6c0,0-.1,0-.2,0s0-.1,0-.2l.2-16v-16.6c-.1,0,0-.2,0-.2l.3-.2c0,0,.1,0,.2,0s5.8,0,5.8,0h17c0,0,5.8-.2,5.8-.2,0,0,.1,0,.2,0l.3.2c0,0,.1.1.1.2v6.3c-.1,0-.1,9.8-.1,9.8l.2,16.5c0,0,0,.1,0,.2,0,0-.1,0-.2,0,0,0-5.2,0-5.2,0,0,0-.1,0-.2,0s0-.1,0-.2v-2.5h-18.5v2.6c0,.2-.1.3-.3.3,0,0-5,0-5,0ZM76.3,65.7h18.5v-20.5h-18.5v20.5ZM78.6,62.8c0,0-.2,0-.2,0l-.2-.3c0,0,0-.1,0-.2v-5.4c.1,0,.1-3.9.1-3.9v-4c-.1,0,0-.1,0-.2l.2-.3c0,0,.1-.1.2-.1s4.3,0,4.3,0h5.4s4.2-.2,4.2-.2c0,0,.2,0,.2,0l.2.3c0,0,0,.1,0,.2v4c-.1,0-.1,4.1-.1,4.1v5.2c.1,0,0,.1,0,.2l-.2.3c0,0-.1,0-.2,0s-4.2,0-4.2,0h-5.4s-4.2.2-4.2.2ZM83.1,58h4.7v-5h-4.7v5Z"/>
  <path d="M118.7,70c-10.5,0-12.3-4.7-12.7-8.8,0,0,0-.1,0-.2l.2-.3c0,0,0,0,.1-.1l4.3-1.5s0,0,0,0c0,0,0,0,.1,0h.3c0,.2.1.3.1.4.6,3.6,2.2,4.1,7.6,4.1h.3c3.5,0,7.2-.3,11-1,0,0,0,0,0,0,0,0,.1,0,.2,0l.3.3c0,0,0,.1.1.2l.5,5.5c0,0,0,.1,0,.2l-.2.3c0,0-.1.1-.2.1-4.5.5-9,.6-12.1.6h-.2ZM116.4,49.4c-2,0-4.1-.1-6-.3,0,0-.1,0-.2,0l-.3-.3c0,0,0-.1,0-.2l.2-5.2c0,0,0-.2.1-.2l.2-.2s.1,0,.2,0,0,0,0,0c2,.2,3.9.3,5.8.3h.3c3,0,6.6-.3,10.6-1,0,0,0,0,0,0,0,0,.1,0,.2,0l.2.2c0,0,0,.1,0,.2v5.2c.1,0,.1.2,0,.2l-.3.3s0,0-.1,0c-3.2.6-6.9,1-10.8,1h-.2Z"/>
  <path d="M157.5,72.1c-4.5,0-7.9-.7-10.3-2.1-2.3-1.3-3.5-3.3-3.5-5.8s.3-3.1,1.1-4.4c-1.7.8-2.7,1.4-3.9,2l-.4.2c-1,.6-2.1.9-3,.9-2,0-3.1-2.1-3.3-4.1,0-.1,0-.2.1-.3,1.9-1,4.1-2.7,6.6-5.1,2.8-2.7,8.2-8.1,12.4-14.2,0,0,.1-.1.2-.1,0,0,.4,0,.4,0,0,0,.1,0,.2,0l4.3,3c0,0,0,0,.1.2v.4c.1,0,.1.2,0,.3-4,4.6-7.5,8.1-10.9,10.9,4.1-1.7,8.1-3.1,13.3-4.7,0,0,0,0,0,0,0,0,0,0,.1,0h.3c0,.2.1.2.2.3l1.3,4.9c0,0,0,.1,0,.2l-.2.3c0,0-.1.1-.2.1-4.9,1-8.9,2.5-10.9,3.9-1.5,1.1-2.3,2.3-2.3,3.7,0,2,2.4,3,7.2,3s1,0,1.5,0c0,0,0,0,0,0,0,0,.2,0,.2.1l.2.3c0,0,0,.1,0,.2l-.6,5.3c0,0,0,.1,0,.2l-.2.3c0,0-.1,0-.2,0h0ZM142.5,49.3c0,0-.2,0-.2-.1-1.8-2.4-3.2-3.9-4.8-5.3,0,0-.1-.1,0-.2v-.4c0,0,0-.1.1-.2l3.5-3.1c0,0,.1,0,.2,0,0,0,.4,0,.4,0,0,0,.1,0,.2,0,1.8,1.5,3.6,3.2,5,5,0,0,0,.1,0,.2v.4c0,0,0,.1-.1.2l-3.7,3.4s-.1,0-.2,0c0,0-.4,0-.4,0Z"/>
  <path d="M172.9,71.8c-1,0-2.1-.6-2.9-1.7-1.3-1.9-2-5.1-2-8.9s.3-8.5,1.2-13c.4-2.2,1-5,1-7.4,0,0,0-.2.1-.2l.2-.2s.1,0,.2,0,4.7.7,4.7.7c0,0,.2,0,.2.1l.2.3s0,.1,0,.2c0,2.2-.4,4.5-1.4,8.4-.8,3.2-1.3,7.3-1.3,10.3s0,1.4.2,2.2c0,.3.1.4.1.4,0,0,.1,0,.4-.4.6-.6,1.1-1.3,1.7-2.3,0,0,.1-.1.2-.1s0,0,.1,0l1,.6c.1,0,.2.2.1.3-1.3,4-1.6,5.5-1.8,8,0,1.7-1,2.7-2.5,2.7,0,0,0,0,0,0ZM184.6,71c-2,0-3.7-.5-4.9-1.4-1.4-1-2.2-2.6-2.2-4.6,0-4.2,3.6-6.1,6.9-6.2.2,0,.4,0,.5,0,.5,0,.9,0,1.4.1,0-2.1-.2-4.3-.2-6.9-2.5.2-5.2.3-7,.3,0,0,0,0,0,0,0,0-.2,0-.2-.1l-.2-.3s0-.1,0-.2v-4.5c-.1,0,0-.2,0-.2l.2-.2c0,0,.1,0,.2,0,2.4,0,4.7,0,6.9-.2,0-1.8,0-3.7,0-5.7s0-.1,0-.2l.3-.3c0,0,.1-.1.2-.1,0,0,4.5,0,4.5,0,0,0,.2,0,.2,0l.3.3c0,0,0,.1,0,.2,0,1,0,1.9,0,2.8,0,.8,0,1.6,0,2.3,1.2-.2,2.5-.4,3.9-.6,0,0,0,0,0,0,0,0,0,0,.1,0l.3.2c0,0,.1.1.1.2l.6,4.4c0,0,0,.1,0,.2l-.2.3c0,0-.1.1-.2.1-1.6.3-3.1.5-4.7.7,0,2.8.1,5.7.3,8.7,2.3,1.1,4.3,2.5,6.3,4.5,0,0,0,.1,0,.2v.4s0,0,0,.1l-2.7,3.8c0,0-.1.1-.2.1h-.4c0,0,0,0,0,0,0,0-.2,0-.2-.1-1.1-1.3-2.1-2.4-3.1-3.2-.7,3.1-3,4.7-6.8,4.7h0ZM184.3,63.6c-1.1,0-1.8.4-1.8,1.1s.7,1,1.9,1c.8,0,1.3-.1,1.6-.4.2-.3.3-.7.3-1.4-.4-.1-.9-.2-1.6-.2s-.2,0-.3,0Z"/>
  <path d="M206.5,72.9c0,0-.2,0-.2-.1-2.1-3.1-4.6-5.9-6.9-7.5,0,0-.1-.1-.1-.2v-.3c0,0,0-.2,0-.2l3.3-3s0,0,.2,0c0,0,.4,0,.4,0,0,0,.1,0,.2,0,2.9,2.1,5.1,4.3,7.2,7.3,0,0,0,.1,0,.2v.3c0,0,0,.2,0,.2l-3.5,3.4c0,0-.1,0-.2,0,0,0-.3,0-.3,0Z"/>
  <path d="M234.4,73.2c-.2,0-.4-.1-.6-.3l-3.5-3.2c0,0-.1-.1,0-.2,0,0,0-.2.1-.2,1.6-1,2.8-2,3.8-3.1-4,1.4-8.2,2.5-13.8,3.7,0,0,0,0,0,0s0,0,0,0h-.3c0,0-.2-.2-.2-.3l-1.4-4.1c0,0,0-.2,0-.2l.2-.3c0,0,.1-.1.2-.1.4,0,.7-.1,1-.2.4,0,.8-.1,1.2-.2v-24.2c-.1,0,0-.1,0-.2l.2-.3c0,0,.1,0,.2,0s3.9,0,3.9,0h4.6s3.9-.1,3.9-.1c0,0,.2,0,.2,0l.2.3c0,0,0,.1,0,.2v4.5c-.1,0-.1,16.9-.1,16.9.4-.1.9-.2,1.4-.4,0,0,0,0,0,0,0,0,.1,0,.2,0,0,0,.1.1.1.2v2.4c.7-1.6,1.1-3.3,1.4-5.2.4-2,.6-4.5.6-8.7,0,0-2.9,0-2.9,0,0,0-.2,0-.2,0l-.2-.3c0,0,0-.1,0-.2v-4c0,0,0-.1,0-.2l.2-.3c0,0,.1,0,.2,0s2.9,0,2.9,0v-7.4c0,0,0-.1,0-.2l.2-.3c0,0,.1,0,.2,0,0,0,4.4,0,4.4,0,0,0,.2,0,.2,0l.2.3c0,0,0,.1,0,.2v7.4h1.7s5.1-.1,5.1-.1c0,0,.2,0,.2,0l.2.3c0,0,0,.1,0,.2v3.2c0,6.8-.1,12.7-.4,16.6-.4,4.9-1.5,7-6.9,7.1-.7,0-1-.3-1.3-.9l-1.8-4.4c0,0,0-.2,0-.3,0,0,.1-.1.2-.1s0,0,0,0c.4,0,.7,0,1.1,0,.7,0,1.3,0,1.9,0,.8-.1,1.3-.3,1.5-3.1.2-3.4.3-8.3.3-13.6h-2.1c-.1,4.2-.3,7.2-.7,9.6-.9,5.9-3.4,10.2-7.6,13.4-.2.1-.4.2-.6.2h0ZM226.1,63.5c1-.2,2-.4,2.9-.6v-2.9h-2.9v3.6ZM226.1,55.3h2.9v-3.1h-2.9v3.1ZM226.1,47.5h2.9v-2.9h-2.9v2.9Z"/>
  <path d="M270.9,72.1c-.2,0-.4,0-.6-.2l-4-3.1c0,0-.1-.2-.1-.3,0-.1,0-.2.2-.2,2.7-1.1,4.8-2.9,6-5.2.8-1.4,1.1-3.5,1.1-6.7s0-2.6,0-4.2c-2.3.1-4.7.2-6.9.2,0,0,0,0,0,0,0,0-.2,0-.2-.1l-.2-.3s0,0,0-.1v-4.5c-.1,0,0-.2,0-.2l.3-.2s.1,0,.2,0c2.2,0,4.6,0,6.7-.2,0-1.8-.2-3.8-.3-5.8v-.6c0,0,0-.2,0-.2l.3-.2s.1,0,.2,0c0,0,4.7-.1,4.7-.1,0,0,.2,0,.2,0l.2.3s0,.1,0,.2v.5c.1,1.9.2,3.8.3,5.6,1.3-.1,2.6-.3,3.7-.4,0,0,.8-.1.8-.1,0,0,.1,0,.2,0l.2.2c0,0,0,.1,0,.2l.2,4.6c0,0,0,.1,0,.2l-.2.3c0,0-.1,0-.2.1-1.4.2-3,.4-4.6.6,0,1.7,0,3.4,0,4.7,0,4.9-.6,8-1.9,10.2-1,1.7-2.8,3.9-5.9,5.4-.2,0-.3.1-.4.1h0ZM260.8,70.2c-1.3,0-2.5-.9-3.4-2.4-.8-1.4-2.1-4.6-2.1-10.1s.9-9.3,1.2-10.9c.4-2.3.6-4.3.7-6.4,0,0,0-.2.1-.2l.3-.2c0,0,.1,0,.2,0s4.6.5,4.6.5c0,0,.1,0,.2.1l.2.3c0,0,0,.1,0,.2,0,2.2-.4,5-1.1,8.4v.6c-.6,2.6-1.1,5-1.1,7.8s.1,3.1.4,4.2c0,0,0,.1,0,.1,0,0,.1,0,.2-.2.6-.6,1.2-1.4,2.3-2.8,0,0,.1-.1.2-.1s0,0,.1,0l.9.5c.1,0,.2.2.1.3l-.3.9c-.9,3.2-1.3,4.2-1.2,5.7,0,1.3-.2,2.3-.8,2.9-.5.5-1.2.8-2.1.8h0Z"/>
  <path d="M290.5,72.7c0,0-.1,0-.2,0,0,0,0-.1,0-.2l.2-7.1v-2.6s-.1-5.3-.1-5.3c0,0,0-.1,0-.2l.2-.2c0,0,.1,0,.2,0s5.2,0,5.2,0h12.8c0,0,5.1-.2,5.1-.2,0,0,.1,0,.2,0l.2.2c0,0,0,.1,0,.2v5.3c-.1,0-.1,2.4-.1,2.4l.2,7.2c0,0,0,.1,0,.2,0,0-.1,0-.2,0,0,0-5.2,0-5.2,0,0,0-.1,0-.2,0s0-.1,0-.2v-1.5h-12.9v1.7c0,.2-.1.3-.3.3,0,0-5,0-5,0ZM295.8,66h12.9v-4.2h-12.9v4.2ZM289.2,55.2c-.2,0-.5-.1-.7-.4l-3.3-3.7c0,0,0-.2,0-.2s0-.2.1-.2c6-3.3,10.7-7.8,14.3-13.8,0,0,0-.1.2-.1h.4c0-.1,0-.1,0-.1s0,0,0,0l4.9,1.4c0,0,.2.1.2.2v.4c.1,0,.1.2,0,.2,0,.1-.2.3-.2.4,0,0,0,.1-.1.2,4.1,4.2,7.8,7.3,14.3,10.3,0,0,.1.1.2.2,0,0,0,.2,0,.2l-3.2,3.9c-.5.5-.8.8-1.2.8-.3,0-.5,0-.8-.3-1.3-.8-2.5-1.6-3.7-2.5v1.8c0,0,0,.2,0,.2l-.2.2c0,0-.1,0-.2,0s-3.9,0-3.9,0h-7.9s-3.8.2-3.8.2c0,0-.1,0-.2,0l-.2-.2c0,0,0-.1,0-.2v-1.8c-1.1.8-2.2,1.7-3.7,2.7-.4.3-.7.4-1,.4h0ZM298.3,49.2h7.9s.9,0,.9,0c-1.8-1.7-3.5-3.6-5.1-5.4-1.4,1.9-3,3.7-4.8,5.4h1.1Z"/>
  <path d="M330,70.8c-2.2,0-8.9-3.2-8.9-7.1s3.4-6.1,7.3-8.3v-4c-2.1.3-4.1.5-6.3.6,0,0,0,0,0,0,0,0-.1,0-.2,0l-.2-.2c0,0,0-.1,0-.2l-.2-4.4c0,0,0-.2,0-.2l.2-.3c0,0,.1,0,.2,0,2.6-.1,4.6-.3,6.6-.6v-6.2c0,0,0-.2.1-.2l.3-.3c0,0,.1,0,.2,0,0,0,4.5,0,4.5,0,0,0,.1,0,.2,0l.2.2c0,0,0,.1,0,.2v5.3c1.2-.3,2.3-.6,3.6-1,0,0,0,0,0,0,0,0,.1,0,.2,0l.3.2c0,0,.1.1.1.2l.4,4.4c0,0,0,.1,0,.2l-.2.3s0,0-.2,0l-1.2.3c-1,.3-2.1.5-3.2.7v2.9c2.6-1,4.9-1.5,6.9-1.5,6.1,0,8.9,4.2,8.9,8.2s-3.4,8.9-9,9h0c-2.2,0-3.7-.4-5.1-1.3-.3-.2-.4-.7-.3-1l1.1-4.4c0,0,0-.2.2-.2,0,0,0,0,.1,0s0,0,.1,0c.9.4,2.2,1,3.5,1h.1c2,0,3.2-1.2,3.2-3.1s-1.3-2.9-3.4-2.9c-1.9,0-3.8.6-6.3,1.9v8.1c0,2.4-1.4,3.7-4,3.7h0ZM328.5,61.5c-1.3.9-1.9,1.7-1.9,2,0,.5,1.3,1.3,1.8,1.3,0,0,.1,0,.1-.4v-2.9ZM349.2,52.4c0,0-.2,0-.2,0-2.4-2.6-4.6-4-7.7-5.1,0,0-.1,0-.2-.2v-.3c-.1,0-.1-.2,0-.2l2.4-3.9c0,0,.1-.1.2-.1h.4c0,0,0,0,0,0,0,0,0,0,0,0,3.4,1.2,6.1,2.9,8.1,5.1,0,0,0,.1,0,.2v.4c0,0,0,.1,0,.2l-2.6,3.9c0,0,0,0-.2.1h-.4c0,.1,0,.1,0,.1Z"/>
  <path d="M363.1,71.7c-.4,0-.6,0-.8-.4l-3.3-4.2c0,0,0-.2,0-.3,0,0,.1-.2.2-.2,6.7-1.5,9.6-4.3,9.6-9.1s-.9-5.3-1.9-5.3c-.6,0-1.7.3-3.4.9l-1.3.4c-1.5.5-3.3,1.1-5,1.6,0,0,0,0,0,0,0,0,0,0-.1,0h-.3c0-.2-.1-.2-.2-.3l-1.3-4.8c0,0,0-.1,0-.2l.2-.3c0,0,.1-.1.2-.1,1.6-.4,3.2-.9,4.8-1.4.8-.3,1.6-.5,2.3-.7h.5c1.8-.7,3.1-1.1,4.3-1.1,4.8,0,7.6,3.9,7.6,10.6s-3.7,12.7-11.8,15h0ZM371.2,44.8c-3.2-.4-7-1-11-2.2,0,0-.1,0-.2-.2v-.3c-.2,0-.2-.1-.2-.2l1.3-4.6c0,0,0-.2.2-.2h.3c0-.1,0-.1,0-.1s0,0,0,0c3.3.9,6.4,1.5,10.3,1.7,0,0,.2,0,.2.1l.2.3c0,0,0,.1,0,.2l-.8,5c0,0,0,.1-.1.2l-.3.2s-.1,0-.2,0,0,0,0,0Z"/>
  <path d="M388,72.1c-2.9,0-5.2-2.4-5.2-5.4s2.3-5.5,5.2-5.5c2.9,0,5.2,2.4,5.2,5.4s-2.3,5.5-5.2,5.5h0ZM388,63.9c-1.5,0-2.6,1.2-2.6,2.8s1.1,2.8,2.6,2.8c1.5,0,2.6-1.2,2.6-2.8s-1.1-2.8-2.6-2.8v-.3.3Z"/>
</svg>